<svg xmlns="http://www.w3.org/2000/svg" width="157.759" height="60.445" viewBox="0 0 157.759 60.445">
  <g id="Group_1" data-name="Group 1" transform="translate(-3188.133 -2428.132)">
    <path id="Path_1" data-name="Path 1" d="M3310.009,2440.755h-1.85v35.012h1.85c1.535,0,3.172-.227,3.172-2.936V2443.69C3313.181,2440.981,3311.544,2440.755,3310.009,2440.755Z"/>
    <path id="Path_2" data-name="Path 2" d="M3234.2,2440.755h-1.851v35.012h1.851c1.534,0,3.171-.227,3.171-2.936V2443.69C3237.371,2440.981,3235.734,2440.755,3234.2,2440.755Z"/>
    <path id="Path_3" data-name="Path 3" d="M3188.133,2428.132v60.445h157.759v-60.445Zm24.883,12.811H3208.3v34.482a1.117,1.117,0,0,1-.775.967l-1.193.335-.671.144-.913.24-.81.187v-36.355h-4.716v-1.721h13.794Zm8.912,34.482a1.117,1.117,0,0,1-.775.967l-1.193.335-.671.144-.888.234-.882.19v-38.073h4.409Zm19.852-7.215c0,3.8,0,5.7-1.91,7.121l-.06.035a.211.211,0,0,1-.052.031,1.354,1.354,0,0,1-.278.177,1.737,1.737,0,0,0-.222.134,8.474,8.474,0,0,1-5.247,1.544h-6.023v-38.03h4.361v.047h1.662a8.465,8.465,0,0,1,5.244,1.542,1.556,1.556,0,0,0,.225.136,1.238,1.238,0,0,1,.312.21h.013l.065.032c1.91,1.421,1.91,3.326,1.91,7.121Zm17.024-27.267h-6.744V2456.1l5.093-1.273v1.686l-5.093,1.273v17.792h6.744v1.674h-11.1v-38.03h11.1ZM3272.9,2464.9c.044.266-.1.439-.439.513l-1.877.358-2.425-5.71-2.493,5.687H3264.5l3.074-7.051-3.345-7.946h2.748l2.333,5.556,2.438-5.556h1.155l-3.019,6.923Zm15.93-23.956h-4.716v34.482a1.117,1.117,0,0,1-.775.967l-1.193.335-.671.144-.913.24-.81.187v-36.355h-4.715v-1.721h13.793Zm8.912,34.482a1.117,1.117,0,0,1-.775.967l-1.193.335-.671.144-.888.234-.882.19v-38.073h4.409Zm19.852-7.215c0,3.8,0,5.7-1.91,7.121l-.06.035a.211.211,0,0,1-.052.031,1.346,1.346,0,0,1-.278.177,1.827,1.827,0,0,0-.222.134,8.473,8.473,0,0,1-5.247,1.544H3303.8v-38.03h4.362v.047h1.661a8.465,8.465,0,0,1,5.244,1.542,1.61,1.61,0,0,0,.225.136,1.265,1.265,0,0,1,.313.21h.012l.065.032c1.91,1.421,1.91,3.326,1.91,7.121Zm17.024-27.267h-6.744V2456.1l5.093-1.273v1.686l-5.093,1.273v17.792h6.744v1.674h-11.1v-38.03h11.1Z"/>
  </g>
</svg>
